<mxfile host="app.diagrams.net" modified="2022-07-04T09:39:06.879Z" agent="5.0 (Windows NT 10.0; WOW64) AppleWebKit/537.36 (KHTML, like Gecko) Chrome/70.0.3538.25 Safari/537.36 Core/1.70.3883.400 QQBrowser/10.8.4559.400" etag="97OSooYJvJkz4uyTyEs9" version="20.0.4" type="github">
  <diagram name="Page-1" id="13e1069c-82ec-6db2-03f1-153e76fe0fe0">
    <mxGraphModel dx="3697" dy="1659" grid="1" gridSize="10" guides="1" tooltips="1" connect="1" arrows="1" fold="1" page="1" pageScale="1" pageWidth="1100" pageHeight="850" background="none" math="0" shadow="0">
      <root>
        <mxCell id="0" />
        <mxCell id="1" parent="0" />
        <mxCell id="6wgtEtR7sXNdbjSEoORC-1" value="tmsReeDlCommonUtils.cpp" style="shape=umlLifeline;perimeter=lifelinePerimeter;whiteSpace=wrap;html=1;container=1;collapsible=0;recursiveResize=0;outlineConnect=0;rounded=1;shadow=0;comic=0;labelBackgroundColor=none;strokeWidth=1;fontFamily=Verdana;fontSize=12;align=center;" parent="1" vertex="1">
          <mxGeometry x="-628" y="-500" width="100" height="1580" as="geometry" />
        </mxCell>
        <mxCell id="6wgtEtR7sXNdbjSEoORC-2" value="" style="html=1;points=[];perimeter=orthogonalPerimeter;rounded=0;shadow=0;comic=0;labelBackgroundColor=none;strokeWidth=1;fontFamily=Verdana;fontSize=12;align=center;" parent="6wgtEtR7sXNdbjSEoORC-1" vertex="1">
          <mxGeometry x="45" y="60" width="10" height="1180" as="geometry" />
        </mxCell>
        <mxCell id="6wgtEtR7sXNdbjSEoORC-88" value="" style="html=1;points=[];perimeter=orthogonalPerimeter;" parent="6wgtEtR7sXNdbjSEoORC-1" vertex="1">
          <mxGeometry x="50" y="520" width="10" height="40" as="geometry" />
        </mxCell>
        <mxCell id="6wgtEtR7sXNdbjSEoORC-89" value="_ioctl" style="edgeStyle=orthogonalEdgeStyle;html=1;align=left;spacingLeft=2;endArrow=block;rounded=0;entryX=1;entryY=0;" parent="6wgtEtR7sXNdbjSEoORC-1" target="6wgtEtR7sXNdbjSEoORC-88" edge="1">
          <mxGeometry relative="1" as="geometry">
            <mxPoint x="55" y="500" as="sourcePoint" />
            <Array as="points">
              <mxPoint x="85" y="500" />
            </Array>
          </mxGeometry>
        </mxCell>
        <mxCell id="6wgtEtR7sXNdbjSEoORC-37" value="tmsDlCommonUtils.cpp" style="shape=umlLifeline;perimeter=lifelinePerimeter;whiteSpace=wrap;html=1;container=1;collapsible=0;recursiveResize=0;outlineConnect=0;rounded=1;shadow=0;comic=0;labelBackgroundColor=none;strokeWidth=1;fontFamily=Verdana;fontSize=12;align=center;" parent="1" vertex="1">
          <mxGeometry x="-827" y="-500" width="105" height="1580" as="geometry" />
        </mxCell>
        <mxCell id="6wgtEtR7sXNdbjSEoORC-38" value="" style="html=1;points=[];perimeter=orthogonalPerimeter;rounded=0;shadow=0;comic=0;labelBackgroundColor=none;strokeWidth=1;fontFamily=Verdana;fontSize=12;align=center;" parent="6wgtEtR7sXNdbjSEoORC-37" vertex="1">
          <mxGeometry x="45" y="60" width="10" height="1180" as="geometry" />
        </mxCell>
        <mxCell id="6wgtEtR7sXNdbjSEoORC-39" value="" style="html=1;points=[];perimeter=orthogonalPerimeter;" parent="6wgtEtR7sXNdbjSEoORC-37" vertex="1">
          <mxGeometry x="50" y="1080" width="10" height="40" as="geometry" />
        </mxCell>
        <mxCell id="6wgtEtR7sXNdbjSEoORC-40" value="isEndWith" style="edgeStyle=orthogonalEdgeStyle;html=1;align=left;spacingLeft=2;endArrow=block;rounded=0;entryX=1;entryY=0;" parent="6wgtEtR7sXNdbjSEoORC-37" target="6wgtEtR7sXNdbjSEoORC-39" edge="1">
          <mxGeometry relative="1" as="geometry">
            <mxPoint x="55" y="1060" as="sourcePoint" />
            <Array as="points">
              <mxPoint x="85" y="1060" />
            </Array>
          </mxGeometry>
        </mxCell>
        <mxCell id="6wgtEtR7sXNdbjSEoORC-41" value="" style="html=1;points=[];perimeter=orthogonalPerimeter;" parent="6wgtEtR7sXNdbjSEoORC-37" vertex="1">
          <mxGeometry x="50" y="1160" width="10" height="40" as="geometry" />
        </mxCell>
        <mxCell id="6wgtEtR7sXNdbjSEoORC-42" value="vtpTxtDownload" style="edgeStyle=orthogonalEdgeStyle;html=1;align=left;spacingLeft=2;endArrow=block;rounded=0;entryX=1;entryY=0;" parent="6wgtEtR7sXNdbjSEoORC-37" target="6wgtEtR7sXNdbjSEoORC-41" edge="1">
          <mxGeometry relative="1" as="geometry">
            <mxPoint x="55" y="1140" as="sourcePoint" />
            <Array as="points">
              <mxPoint x="85" y="1140" />
            </Array>
          </mxGeometry>
        </mxCell>
        <object label="getVaildFileName" id="6wgtEtR7sXNdbjSEoORC-49">
          <mxCell style="html=1;verticalAlign=bottom;endArrow=block;rounded=0;" parent="6wgtEtR7sXNdbjSEoORC-37" edge="1">
            <mxGeometry width="80" relative="1" as="geometry">
              <mxPoint x="-175.5" y="75" as="sourcePoint" />
              <mxPoint x="45" y="75" as="targetPoint" />
            </mxGeometry>
          </mxCell>
        </object>
        <mxCell id="-rd93zXeOg7RclRvKw8m-17" value="" style="html=1;points=[];perimeter=orthogonalPerimeter;labelBackgroundColor=#FFFF99;fontColor=#000000;" vertex="1" parent="6wgtEtR7sXNdbjSEoORC-37">
          <mxGeometry x="50" y="110" width="10" height="260" as="geometry" />
        </mxCell>
        <mxCell id="-rd93zXeOg7RclRvKw8m-18" value="getVaildFileNameByPth" style="edgeStyle=orthogonalEdgeStyle;html=1;align=left;spacingLeft=2;endArrow=block;rounded=0;entryX=1;entryY=0;fontColor=#000000;" edge="1" target="-rd93zXeOg7RclRvKw8m-17" parent="6wgtEtR7sXNdbjSEoORC-37">
          <mxGeometry relative="1" as="geometry">
            <mxPoint x="55" y="90" as="sourcePoint" />
            <Array as="points">
              <mxPoint x="85" y="90" />
            </Array>
          </mxGeometry>
        </mxCell>
        <mxCell id="-rd93zXeOg7RclRvKw8m-19" value="" style="html=1;points=[];perimeter=orthogonalPerimeter;labelBackgroundColor=#FFFF99;fontColor=#000000;" vertex="1" parent="6wgtEtR7sXNdbjSEoORC-37">
          <mxGeometry x="55" y="150" width="10" height="50" as="geometry" />
        </mxCell>
        <mxCell id="-rd93zXeOg7RclRvKw8m-20" value="isEndWith" style="edgeStyle=orthogonalEdgeStyle;html=1;align=left;spacingLeft=2;endArrow=block;rounded=0;entryX=1;entryY=0;fontColor=#000000;" edge="1" target="-rd93zXeOg7RclRvKw8m-19" parent="6wgtEtR7sXNdbjSEoORC-37">
          <mxGeometry relative="1" as="geometry">
            <mxPoint x="60" y="130" as="sourcePoint" />
            <Array as="points">
              <mxPoint x="90" y="130" />
            </Array>
          </mxGeometry>
        </mxCell>
        <mxCell id="-rd93zXeOg7RclRvKw8m-23" value="" style="html=1;points=[];perimeter=orthogonalPerimeter;labelBackgroundColor=#FFFF99;fontColor=#000000;" vertex="1" parent="6wgtEtR7sXNdbjSEoORC-37">
          <mxGeometry x="55" y="238" width="10" height="62" as="geometry" />
        </mxCell>
        <mxCell id="-rd93zXeOg7RclRvKw8m-24" value="searchFilePath" style="edgeStyle=orthogonalEdgeStyle;html=1;align=left;spacingLeft=2;endArrow=block;rounded=0;entryX=1;entryY=0;fontColor=#000000;" edge="1" target="-rd93zXeOg7RclRvKw8m-23" parent="6wgtEtR7sXNdbjSEoORC-37">
          <mxGeometry relative="1" as="geometry">
            <mxPoint x="60" y="218" as="sourcePoint" />
            <Array as="points">
              <mxPoint x="90" y="218" />
            </Array>
          </mxGeometry>
        </mxCell>
        <mxCell id="-rd93zXeOg7RclRvKw8m-27" value="" style="html=1;points=[];perimeter=orthogonalPerimeter;labelBackgroundColor=#FFFF99;fontColor=#000000;" vertex="1" parent="6wgtEtR7sXNdbjSEoORC-37">
          <mxGeometry x="50" y="410" width="10" height="210" as="geometry" />
        </mxCell>
        <mxCell id="-rd93zXeOg7RclRvKw8m-28" value="getCosVerFromVtp" style="edgeStyle=orthogonalEdgeStyle;html=1;align=left;spacingLeft=2;endArrow=block;rounded=0;entryX=1;entryY=0;fontColor=#000000;" edge="1" target="-rd93zXeOg7RclRvKw8m-27" parent="6wgtEtR7sXNdbjSEoORC-37">
          <mxGeometry relative="1" as="geometry">
            <mxPoint x="55" y="390" as="sourcePoint" />
            <Array as="points">
              <mxPoint x="85" y="390" />
            </Array>
          </mxGeometry>
        </mxCell>
        <mxCell id="-rd93zXeOg7RclRvKw8m-30" value="" style="html=1;points=[];perimeter=orthogonalPerimeter;labelBackgroundColor=#FFFF99;fontColor=#000000;" vertex="1" parent="6wgtEtR7sXNdbjSEoORC-37">
          <mxGeometry x="55" y="450" width="10" height="40" as="geometry" />
        </mxCell>
        <mxCell id="-rd93zXeOg7RclRvKw8m-31" value="isEndWith" style="edgeStyle=orthogonalEdgeStyle;html=1;align=left;spacingLeft=2;endArrow=block;rounded=0;entryX=1;entryY=0;fontColor=#000000;" edge="1" target="-rd93zXeOg7RclRvKw8m-30" parent="6wgtEtR7sXNdbjSEoORC-37">
          <mxGeometry relative="1" as="geometry">
            <mxPoint x="60" y="430" as="sourcePoint" />
            <Array as="points">
              <mxPoint x="90" y="430" />
            </Array>
          </mxGeometry>
        </mxCell>
        <mxCell id="-rd93zXeOg7RclRvKw8m-32" value="" style="html=1;points=[];perimeter=orthogonalPerimeter;labelBackgroundColor=#FFFF99;fontColor=#000000;" vertex="1" parent="6wgtEtR7sXNdbjSEoORC-37">
          <mxGeometry x="55" y="526" width="10" height="74" as="geometry" />
        </mxCell>
        <mxCell id="-rd93zXeOg7RclRvKw8m-33" value="parseVersion" style="edgeStyle=orthogonalEdgeStyle;html=1;align=left;spacingLeft=2;endArrow=block;rounded=0;entryX=1;entryY=0;fontColor=#000000;" edge="1" target="-rd93zXeOg7RclRvKw8m-32" parent="6wgtEtR7sXNdbjSEoORC-37">
          <mxGeometry relative="1" as="geometry">
            <mxPoint x="60" y="506" as="sourcePoint" />
            <Array as="points">
              <mxPoint x="90" y="506" />
            </Array>
          </mxGeometry>
        </mxCell>
        <mxCell id="6wgtEtR7sXNdbjSEoORC-52" value="&lt;font color=&quot;#ff0000&quot;&gt;2. open /dev/&amp;lt;nfcNode&amp;gt;&lt;/font&gt;" style="text;html=1;resizable=0;autosize=1;align=center;verticalAlign=middle;points=[];fillColor=none;strokeColor=none;rounded=0;" parent="6wgtEtR7sXNdbjSEoORC-37" vertex="1">
          <mxGeometry x="-95" y="660" width="150" height="30" as="geometry" />
        </mxCell>
        <mxCell id="7baba1c4bc27f4b0-8" value="tmsDlNciUtils.cpp" style="shape=umlLifeline;perimeter=lifelinePerimeter;whiteSpace=wrap;html=1;container=1;collapsible=0;recursiveResize=0;outlineConnect=0;rounded=1;shadow=0;comic=0;labelBackgroundColor=none;strokeWidth=1;fontFamily=Verdana;fontSize=12;align=center;" parent="1" vertex="1">
          <mxGeometry x="-49" y="-200" width="100" height="1280" as="geometry" />
        </mxCell>
        <mxCell id="7baba1c4bc27f4b0-9" value="" style="html=1;points=[];perimeter=orthogonalPerimeter;rounded=0;shadow=0;comic=0;labelBackgroundColor=none;strokeWidth=1;fontFamily=Verdana;fontSize=12;align=center;" parent="7baba1c4bc27f4b0-8" vertex="1">
          <mxGeometry x="45" y="100" width="10" height="1140" as="geometry" />
        </mxCell>
        <mxCell id="6wgtEtR7sXNdbjSEoORC-92" value="" style="html=1;points=[];perimeter=orthogonalPerimeter;" parent="7baba1c4bc27f4b0-8" vertex="1">
          <mxGeometry x="50" y="410" width="10" height="180" as="geometry" />
        </mxCell>
        <mxCell id="6wgtEtR7sXNdbjSEoORC-93" value="getNfccFwBLVerFromChip" style="edgeStyle=orthogonalEdgeStyle;html=1;align=left;spacingLeft=2;endArrow=block;rounded=0;entryX=1;entryY=0;" parent="7baba1c4bc27f4b0-8" target="6wgtEtR7sXNdbjSEoORC-92" edge="1">
          <mxGeometry relative="1" as="geometry">
            <mxPoint x="55" y="390" as="sourcePoint" />
            <Array as="points">
              <mxPoint x="85" y="390" />
            </Array>
          </mxGeometry>
        </mxCell>
        <mxCell id="6wgtEtR7sXNdbjSEoORC-94" value="" style="html=1;points=[];perimeter=orthogonalPerimeter;" parent="7baba1c4bc27f4b0-8" vertex="1">
          <mxGeometry x="55" y="450" width="10" height="40" as="geometry" />
        </mxCell>
        <mxCell id="6wgtEtR7sXNdbjSEoORC-95" value="nciCmdProcess" style="edgeStyle=orthogonalEdgeStyle;html=1;align=left;spacingLeft=2;endArrow=block;rounded=0;entryX=1;entryY=0;" parent="7baba1c4bc27f4b0-8" target="6wgtEtR7sXNdbjSEoORC-94" edge="1">
          <mxGeometry relative="1" as="geometry">
            <mxPoint x="60" y="430" as="sourcePoint" />
            <Array as="points">
              <mxPoint x="90" y="430" />
            </Array>
          </mxGeometry>
        </mxCell>
        <mxCell id="6wgtEtR7sXNdbjSEoORC-98" value="" style="html=1;points=[];perimeter=orthogonalPerimeter;" parent="7baba1c4bc27f4b0-8" vertex="1">
          <mxGeometry x="54" y="532" width="10" height="40" as="geometry" />
        </mxCell>
        <mxCell id="6wgtEtR7sXNdbjSEoORC-99" value="parseBlVerFromNciRsp" style="edgeStyle=orthogonalEdgeStyle;html=1;align=left;spacingLeft=2;endArrow=block;rounded=0;entryX=1;entryY=0;" parent="7baba1c4bc27f4b0-8" target="6wgtEtR7sXNdbjSEoORC-98" edge="1" source="6wgtEtR7sXNdbjSEoORC-92">
          <mxGeometry relative="1" as="geometry">
            <mxPoint x="69" y="512" as="sourcePoint" />
            <Array as="points">
              <mxPoint x="89" y="512" />
              <mxPoint x="89" y="532" />
            </Array>
          </mxGeometry>
        </mxCell>
        <mxCell id="-rd93zXeOg7RclRvKw8m-5" value="" style="html=1;points=[];perimeter=orthogonalPerimeter;labelBackgroundColor=#FFFF99;fontColor=#000000;" vertex="1" parent="7baba1c4bc27f4b0-8">
          <mxGeometry x="49" y="680" width="10" height="40" as="geometry" />
        </mxCell>
        <mxCell id="-rd93zXeOg7RclRvKw8m-6" value="getNfccBlVerFromChip" style="edgeStyle=orthogonalEdgeStyle;html=1;align=left;spacingLeft=2;endArrow=block;rounded=0;entryX=1;entryY=0;fontColor=#000000;" edge="1" target="-rd93zXeOg7RclRvKw8m-5" parent="7baba1c4bc27f4b0-8">
          <mxGeometry relative="1" as="geometry">
            <mxPoint x="54" y="660" as="sourcePoint" />
            <Array as="points">
              <mxPoint x="84" y="660" />
            </Array>
          </mxGeometry>
        </mxCell>
        <mxCell id="7baba1c4bc27f4b0-2" value="TmsNfc.cpp" style="shape=umlLifeline;perimeter=lifelinePerimeter;whiteSpace=wrap;html=1;container=1;collapsible=0;recursiveResize=0;outlineConnect=0;rounded=1;shadow=0;comic=0;labelBackgroundColor=none;strokeWidth=1;fontFamily=Verdana;fontSize=12;align=center;" parent="1" vertex="1">
          <mxGeometry x="480" y="-210" width="100" height="1290" as="geometry" />
        </mxCell>
        <mxCell id="7baba1c4bc27f4b0-10" value="" style="html=1;points=[];perimeter=orthogonalPerimeter;rounded=0;shadow=0;comic=0;labelBackgroundColor=none;strokeWidth=1;fontFamily=Verdana;fontSize=12;align=center;" parent="7baba1c4bc27f4b0-2" vertex="1">
          <mxGeometry x="45" y="100" width="10" height="1150" as="geometry" />
        </mxCell>
        <mxCell id="Ku6d6TWkNU5Iu4rAbxKe-25" value="" style="html=1;points=[];perimeter=orthogonalPerimeter;" parent="7baba1c4bc27f4b0-2" vertex="1">
          <mxGeometry x="50" y="815" width="10" height="55" as="geometry" />
        </mxCell>
        <mxCell id="Ku6d6TWkNU5Iu4rAbxKe-26" value="doNfccBlDownload" style="edgeStyle=orthogonalEdgeStyle;html=1;align=left;spacingLeft=2;endArrow=block;rounded=0;entryX=1;entryY=0;" parent="7baba1c4bc27f4b0-2" target="Ku6d6TWkNU5Iu4rAbxKe-25" edge="1">
          <mxGeometry relative="1" as="geometry">
            <mxPoint x="55" y="795" as="sourcePoint" />
            <Array as="points">
              <mxPoint x="85" y="795" />
            </Array>
          </mxGeometry>
        </mxCell>
        <mxCell id="Ku6d6TWkNU5Iu4rAbxKe-24" value="&lt;div style=&quot;text-align: left;&quot;&gt;&lt;span style=&quot;font-size: 11px;&quot;&gt;TmsNfc::doAction&lt;/span&gt;&lt;/div&gt;" style="html=1;verticalAlign=bottom;endArrow=block;rounded=0;" parent="7baba1c4bc27f4b0-2" edge="1">
          <mxGeometry width="80" relative="1" as="geometry">
            <mxPoint x="-1400" y="770" as="sourcePoint" />
            <mxPoint x="45" y="770" as="targetPoint" />
          </mxGeometry>
        </mxCell>
        <mxCell id="-rd93zXeOg7RclRvKw8m-12" value="&lt;font color=&quot;#000000&quot;&gt;doNfccBlDownload&lt;/font&gt;" style="html=1;verticalAlign=bottom;endArrow=block;rounded=0;fontColor=#FF0000;" edge="1" parent="7baba1c4bc27f4b0-2" target="-rd93zXeOg7RclRvKw8m-11">
          <mxGeometry width="80" relative="1" as="geometry">
            <mxPoint x="60" y="850" as="sourcePoint" />
            <mxPoint x="140" y="850" as="targetPoint" />
          </mxGeometry>
        </mxCell>
        <mxCell id="Ku6d6TWkNU5Iu4rAbxKe-1" value="tmsNfccDl.cpp" style="shape=umlLifeline;perimeter=lifelinePerimeter;whiteSpace=wrap;html=1;container=1;collapsible=0;recursiveResize=0;outlineConnect=0;rounded=1;shadow=0;comic=0;labelBackgroundColor=none;strokeWidth=1;fontFamily=Verdana;fontSize=12;align=center;" parent="1" vertex="1">
          <mxGeometry x="-1057.5" y="-500" width="100" height="1500" as="geometry" />
        </mxCell>
        <mxCell id="Ku6d6TWkNU5Iu4rAbxKe-2" value="" style="html=1;points=[];perimeter=orthogonalPerimeter;rounded=0;shadow=0;comic=0;labelBackgroundColor=none;strokeWidth=1;fontFamily=Verdana;fontSize=12;align=center;" parent="Ku6d6TWkNU5Iu4rAbxKe-1" vertex="1">
          <mxGeometry x="45" y="60" width="10" height="1180" as="geometry" />
        </mxCell>
        <mxCell id="6wgtEtR7sXNdbjSEoORC-17" value="tmslog.c" style="shape=umlLifeline;perimeter=lifelinePerimeter;whiteSpace=wrap;html=1;container=1;collapsible=0;recursiveResize=0;outlineConnect=0;rounded=1;shadow=0;comic=0;labelBackgroundColor=none;strokeWidth=1;fontFamily=Verdana;fontSize=12;align=center;" parent="1" vertex="1">
          <mxGeometry x="147" y="-200" width="100" height="530" as="geometry" />
        </mxCell>
        <mxCell id="6wgtEtR7sXNdbjSEoORC-18" value="" style="html=1;points=[];perimeter=orthogonalPerimeter;rounded=0;shadow=0;comic=0;labelBackgroundColor=none;strokeWidth=1;fontFamily=Verdana;fontSize=12;align=center;" parent="6wgtEtR7sXNdbjSEoORC-17" vertex="1">
          <mxGeometry x="45" y="100" width="10" height="430" as="geometry" />
        </mxCell>
        <mxCell id="6wgtEtR7sXNdbjSEoORC-83" value="&lt;span style=&quot;text-align: left;&quot;&gt;phDriver.c&lt;/span&gt;" style="shape=umlLifeline;perimeter=lifelinePerimeter;whiteSpace=wrap;html=1;container=1;collapsible=0;recursiveResize=0;outlineConnect=0;rounded=1;shadow=0;comic=0;labelBackgroundColor=none;strokeWidth=1;fontFamily=Verdana;fontSize=12;align=center;" parent="1" vertex="1">
          <mxGeometry x="-236" y="-500" width="100" height="750" as="geometry" />
        </mxCell>
        <mxCell id="6wgtEtR7sXNdbjSEoORC-84" value="" style="html=1;points=[];perimeter=orthogonalPerimeter;rounded=0;shadow=0;comic=0;labelBackgroundColor=none;strokeWidth=1;fontFamily=Verdana;fontSize=12;align=center;" parent="6wgtEtR7sXNdbjSEoORC-83" vertex="1">
          <mxGeometry x="45" y="60" width="10" height="680" as="geometry" />
        </mxCell>
        <mxCell id="6wgtEtR7sXNdbjSEoORC-60" value="&lt;span style=&quot;text-align: left;&quot;&gt;SEApi.c&lt;/span&gt;" style="shape=umlLifeline;perimeter=lifelinePerimeter;whiteSpace=wrap;html=1;container=1;collapsible=0;recursiveResize=0;outlineConnect=0;rounded=1;shadow=0;comic=0;labelBackgroundColor=none;strokeWidth=1;fontFamily=Verdana;fontSize=12;align=center;" parent="1" vertex="1">
          <mxGeometry x="-430" y="-500" width="100" height="750" as="geometry" />
        </mxCell>
        <mxCell id="6wgtEtR7sXNdbjSEoORC-61" value="" style="html=1;points=[];perimeter=orthogonalPerimeter;rounded=0;shadow=0;comic=0;labelBackgroundColor=none;strokeWidth=1;fontFamily=Verdana;fontSize=12;align=center;" parent="6wgtEtR7sXNdbjSEoORC-60" vertex="1">
          <mxGeometry x="45" y="60" width="10" height="680" as="geometry" />
        </mxCell>
        <mxCell id="Ku6d6TWkNU5Iu4rAbxKe-15" value="return BL Version" style="html=1;verticalAlign=bottom;endArrow=open;dashed=1;endSize=8;rounded=0;exitX=0.5;exitY=0.7;exitDx=0;exitDy=0;exitPerimeter=0;" parent="1" source="6wgtEtR7sXNdbjSEoORC-98" edge="1">
          <mxGeometry relative="1" as="geometry">
            <mxPoint x="10" y="360" as="sourcePoint" />
            <mxPoint x="-120" y="360" as="targetPoint" />
          </mxGeometry>
        </mxCell>
        <mxCell id="Ku6d6TWkNU5Iu4rAbxKe-17" value="&lt;span style=&quot;background-color: rgb(255, 255, 153);&quot;&gt;Log&lt;br&gt;&lt;/span&gt;&lt;div style=&quot;text-align: left;&quot;&gt;&lt;span style=&quot;background-color: rgb(255, 255, 153);&quot;&gt;TmsCosDl:NciUtils: NxpNci&amp;gt; BL Version: 0.0.b4.2&lt;/span&gt;&lt;/div&gt;" style="text;html=1;resizable=0;autosize=1;align=center;verticalAlign=middle;points=[];fillColor=none;strokeColor=none;rounded=0;" parent="1" vertex="1">
          <mxGeometry x="10" y="350" width="290" height="40" as="geometry" />
        </mxCell>
        <mxCell id="Ku6d6TWkNU5Iu4rAbxKe-18" value="" style="endArrow=classic;html=1;rounded=0;" parent="1" target="Ku6d6TWkNU5Iu4rAbxKe-17" edge="1">
          <mxGeometry width="50" height="50" relative="1" as="geometry">
            <mxPoint x="100" y="330" as="sourcePoint" />
            <mxPoint x="136.66666666666652" y="370" as="targetPoint" />
          </mxGeometry>
        </mxCell>
        <mxCell id="Ku6d6TWkNU5Iu4rAbxKe-22" value="&lt;span style=&quot;background-color: rgb(255, 255, 153);&quot;&gt;Log&lt;br&gt;TmsCosDl:NfccDl: nfccBlDownload: NFCC BL downloading...&lt;/span&gt;" style="text;html=1;resizable=0;autosize=1;align=center;verticalAlign=middle;points=[];fillColor=none;strokeColor=none;rounded=0;" parent="1" vertex="1">
          <mxGeometry x="-1360" y="710" width="350" height="40" as="geometry" />
        </mxCell>
        <mxCell id="6wgtEtR7sXNdbjSEoORC-4" value="vendor\tms\secure_element&lt;br&gt;\tms-cos-dl\tms-cos-dl-ree&lt;br&gt;\tmsReeDlCommonUtils.cpp" style="shape=note;whiteSpace=wrap;html=1;size=14;verticalAlign=top;align=left;spacingTop=-6;rounded=0;shadow=0;comic=0;labelBackgroundColor=none;strokeWidth=1;fontFamily=Verdana;fontSize=12" parent="1" vertex="1">
          <mxGeometry x="-673" y="-600" width="190" height="55" as="geometry" />
        </mxCell>
        <mxCell id="6wgtEtR7sXNdbjSEoORC-16" value="&lt;span style=&quot;background-color: rgb(255, 255, 153);&quot;&gt;Log&lt;br&gt;&lt;/span&gt;&lt;div style=&quot;text-align: left;&quot;&gt;&lt;span style=&quot;background-color: rgb(255, 255, 153);&quot;&gt;TmsCosDl:NciUtils: Tx len =&amp;nbsp; &amp;nbsp;4, 20000100&lt;/span&gt;&lt;/div&gt;&lt;div style=&quot;text-align: left;&quot;&gt;&lt;span style=&quot;background-color: rgb(255, 255, 153);&quot;&gt;TmsCosDl:NciUtils: Rx len =&amp;nbsp; &amp;nbsp;4, 40000100&lt;/span&gt;&lt;/div&gt;&lt;div style=&quot;text-align: left;&quot;&gt;&lt;span style=&quot;background-color: rgb(255, 255, 153);&quot;&gt;......&lt;/span&gt;&lt;/div&gt;" style="text;html=1;resizable=0;autosize=1;align=center;verticalAlign=middle;points=[];fillColor=none;strokeColor=none;rounded=0;" parent="1" vertex="1">
          <mxGeometry x="200" y="240" width="250" height="70" as="geometry" />
        </mxCell>
        <mxCell id="6wgtEtR7sXNdbjSEoORC-29" value="&lt;span style=&quot;text-align: left;&quot;&gt;phDriver.c&lt;/span&gt;" style="shape=umlLifeline;perimeter=lifelinePerimeter;whiteSpace=wrap;html=1;container=1;collapsible=0;recursiveResize=0;outlineConnect=0;rounded=1;shadow=0;comic=0;labelBackgroundColor=none;strokeWidth=1;fontFamily=Verdana;fontSize=12;align=center;" parent="1" vertex="1">
          <mxGeometry x="-1940" y="-210" width="100" height="1040" as="geometry" />
        </mxCell>
        <mxCell id="6wgtEtR7sXNdbjSEoORC-30" value="" style="html=1;points=[];perimeter=orthogonalPerimeter;rounded=0;shadow=0;comic=0;labelBackgroundColor=none;strokeWidth=1;fontFamily=Verdana;fontSize=12;align=center;" parent="6wgtEtR7sXNdbjSEoORC-29" vertex="1">
          <mxGeometry x="45" y="100" width="10" height="640" as="geometry" />
        </mxCell>
        <mxCell id="6wgtEtR7sXNdbjSEoORC-31" value="" style="html=1;points=[];perimeter=orthogonalPerimeter;" parent="6wgtEtR7sXNdbjSEoORC-29" vertex="1">
          <mxGeometry x="50" y="150" width="10" height="110" as="geometry" />
        </mxCell>
        <mxCell id="6wgtEtR7sXNdbjSEoORC-32" value="ioctlNfc" style="edgeStyle=orthogonalEdgeStyle;html=1;align=left;spacingLeft=2;endArrow=block;rounded=0;entryX=1;entryY=0;" parent="6wgtEtR7sXNdbjSEoORC-29" target="6wgtEtR7sXNdbjSEoORC-31" edge="1">
          <mxGeometry relative="1" as="geometry">
            <mxPoint x="55" y="130" as="sourcePoint" />
            <Array as="points">
              <mxPoint x="85" y="130" />
            </Array>
          </mxGeometry>
        </mxCell>
        <mxCell id="6wgtEtR7sXNdbjSEoORC-33" value="" style="html=1;points=[];perimeter=orthogonalPerimeter;" parent="6wgtEtR7sXNdbjSEoORC-29" vertex="1">
          <mxGeometry x="55" y="197" width="10" height="40" as="geometry" />
        </mxCell>
        <mxCell id="6wgtEtR7sXNdbjSEoORC-34" value="_ioctl" style="edgeStyle=orthogonalEdgeStyle;html=1;align=left;spacingLeft=2;endArrow=block;rounded=0;entryX=1;entryY=0;exitX=1.086;exitY=0.254;exitDx=0;exitDy=0;exitPerimeter=0;" parent="6wgtEtR7sXNdbjSEoORC-29" source="6wgtEtR7sXNdbjSEoORC-31" target="6wgtEtR7sXNdbjSEoORC-33" edge="1">
          <mxGeometry relative="1" as="geometry">
            <mxPoint x="55" y="177" as="sourcePoint" />
            <Array as="points">
              <mxPoint x="85" y="178" />
              <mxPoint x="85" y="197" />
            </Array>
          </mxGeometry>
        </mxCell>
        <mxCell id="6wgtEtR7sXNdbjSEoORC-35" value="vendor\tms\secure_element\7816-3-T1\ph-driver\phDriver.c" style="shape=note;whiteSpace=wrap;html=1;size=14;verticalAlign=top;align=left;spacingTop=-6;rounded=0;shadow=0;comic=0;labelBackgroundColor=none;strokeWidth=1;fontFamily=Verdana;fontSize=12" parent="1" vertex="1">
          <mxGeometry x="-2030" y="-270" width="280" height="35" as="geometry" />
        </mxCell>
        <mxCell id="6wgtEtR7sXNdbjSEoORC-36" value="123" style="html=1;verticalAlign=bottom;endArrow=block;rounded=0;" parent="1" target="6wgtEtR7sXNdbjSEoORC-29" edge="1">
          <mxGeometry width="80" relative="1" as="geometry">
            <mxPoint x="-2080" y="180" as="sourcePoint" />
            <mxPoint x="-1970.5" y="180" as="targetPoint" />
          </mxGeometry>
        </mxCell>
        <mxCell id="6wgtEtR7sXNdbjSEoORC-43" value="vendor\tms\secure_element&lt;br&gt;\tms-cos-dl\tms-cos-dl-common&lt;br&gt;\tmsDlCommonUtils.cpp" style="shape=note;whiteSpace=wrap;html=1;size=14;verticalAlign=top;align=left;spacingTop=-6;rounded=0;shadow=0;comic=0;labelBackgroundColor=none;strokeWidth=1;fontFamily=Verdana;fontSize=12" parent="1" vertex="1">
          <mxGeometry x="-877" y="-600" width="200" height="55" as="geometry" />
        </mxCell>
        <mxCell id="6wgtEtR7sXNdbjSEoORC-45" value="&lt;span style=&quot;background-color: rgb(255, 255, 153);&quot;&gt;Log&lt;br&gt;TmsCosDl:DlCommonUtils: isEndWith: name[37]=t, endStr[3]=n&lt;/span&gt;" style="text;html=1;resizable=0;autosize=1;align=center;verticalAlign=middle;points=[];fillColor=none;strokeColor=none;rounded=0;" parent="1" vertex="1">
          <mxGeometry x="-860" y="900" width="360" height="40" as="geometry" />
        </mxCell>
        <mxCell id="6wgtEtR7sXNdbjSEoORC-46" value="&lt;span style=&quot;background-color: rgb(255, 255, 153);&quot;&gt;Log&lt;br&gt;&lt;/span&gt;&lt;div style=&quot;text-align: left;&quot;&gt;&lt;span style=&quot;background-color: rgb(255, 255, 153);&quot;&gt;TmsCosDl:DlCommonUtils: vtpTxtDownload enter, /data/vendor/nfc/THN31_NFCC_BL_VTP.txt&lt;/span&gt;&lt;/div&gt;&lt;div style=&quot;text-align: left;&quot;&gt;&lt;span style=&quot;background-color: rgb(255, 255, 153);&quot;&gt;Begin COS download&lt;/span&gt;&lt;/div&gt;" style="text;html=1;resizable=0;autosize=1;align=center;verticalAlign=middle;points=[];fillColor=none;strokeColor=none;rounded=0;" parent="1" vertex="1">
          <mxGeometry x="-870" y="980" width="530" height="60" as="geometry" />
        </mxCell>
        <mxCell id="6wgtEtR7sXNdbjSEoORC-47" value="" style="endArrow=classic;html=1;rounded=0;" parent="1" target="6wgtEtR7sXNdbjSEoORC-45" edge="1">
          <mxGeometry width="50" height="50" relative="1" as="geometry">
            <mxPoint x="-710" y="880" as="sourcePoint" />
            <mxPoint x="-570" y="1270" as="targetPoint" />
          </mxGeometry>
        </mxCell>
        <mxCell id="6wgtEtR7sXNdbjSEoORC-48" value="" style="endArrow=classic;html=1;rounded=0;" parent="1" target="6wgtEtR7sXNdbjSEoORC-46" edge="1">
          <mxGeometry width="50" height="50" relative="1" as="geometry">
            <mxPoint x="-710" y="960" as="sourcePoint" />
            <mxPoint x="-576" y="1360" as="targetPoint" />
          </mxGeometry>
        </mxCell>
        <mxCell id="6wgtEtR7sXNdbjSEoORC-50" value="&lt;font color=&quot;#ff0000&quot;&gt;1.&amp;nbsp;查找fw升级文件&lt;/font&gt;" style="text;html=1;resizable=0;autosize=1;align=center;verticalAlign=middle;points=[];fillColor=none;strokeColor=none;rounded=0;" parent="1" vertex="1">
          <mxGeometry x="-954.5" y="-430" width="120" height="30" as="geometry" />
        </mxCell>
        <mxCell id="6wgtEtR7sXNdbjSEoORC-71" value="vendor\tms\secure_element&lt;br&gt;\7816-3-T1\7816\SEApi.c" style="shape=note;whiteSpace=wrap;html=1;size=14;verticalAlign=top;align=left;spacingTop=-6;rounded=0;shadow=0;comic=0;labelBackgroundColor=none;strokeWidth=1;fontFamily=Verdana;fontSize=12" parent="1" vertex="1">
          <mxGeometry x="-480" y="-600" width="190" height="55" as="geometry" />
        </mxCell>
        <mxCell id="6wgtEtR7sXNdbjSEoORC-72" value="vendor\tms\secure_element&lt;br&gt;\tms-cos-dl\tms-cos-dl-ree&lt;br&gt;\tmsNfccDl.cpp" style="shape=note;whiteSpace=wrap;html=1;size=14;verticalAlign=top;align=left;spacingTop=-6;rounded=0;shadow=0;comic=0;labelBackgroundColor=none;strokeWidth=1;fontFamily=Verdana;fontSize=12" parent="1" vertex="1">
          <mxGeometry x="-1107.5" y="-600" width="200" height="55" as="geometry" />
        </mxCell>
        <mxCell id="6wgtEtR7sXNdbjSEoORC-73" value="vendor\tms\secure_element&lt;br&gt;\tms-cos-dl\tms-cos-dl-ree\tmsDlNciUtils.cpp" style="shape=note;whiteSpace=wrap;html=1;size=14;verticalAlign=top;align=left;spacingTop=-6;rounded=0;shadow=0;comic=0;labelBackgroundColor=none;strokeWidth=1;fontFamily=Verdana;fontSize=12" parent="1" vertex="1">
          <mxGeometry x="-94" y="-600" width="190" height="55" as="geometry" />
        </mxCell>
        <mxCell id="6wgtEtR7sXNdbjSEoORC-74" value="vendor\tms\halimpl&lt;br&gt;\st21nfc\extns\impl\tmsnfc\1.0&lt;br&gt;\TmsNfc.cpp" style="shape=note;whiteSpace=wrap;html=1;size=14;verticalAlign=top;align=left;spacingTop=-6;rounded=0;shadow=0;comic=0;labelBackgroundColor=none;strokeWidth=1;fontFamily=Verdana;fontSize=12" parent="1" vertex="1">
          <mxGeometry x="435" y="-600" width="190" height="55" as="geometry" />
        </mxCell>
        <mxCell id="6wgtEtR7sXNdbjSEoORC-79" value="" style="shape=umlLifeline;perimeter=lifelinePerimeter;whiteSpace=wrap;html=1;container=1;collapsible=0;recursiveResize=0;outlineConnect=0;rounded=1;shadow=0;comic=0;labelBackgroundColor=none;strokeWidth=1;fontFamily=Verdana;fontSize=12;align=center;" parent="1" vertex="1">
          <mxGeometry x="-150" y="1140" width="100" height="1040" as="geometry" />
        </mxCell>
        <mxCell id="6wgtEtR7sXNdbjSEoORC-80" value="" style="html=1;points=[];perimeter=orthogonalPerimeter;rounded=0;shadow=0;comic=0;labelBackgroundColor=none;strokeWidth=1;fontFamily=Verdana;fontSize=12;align=center;" parent="6wgtEtR7sXNdbjSEoORC-79" vertex="1">
          <mxGeometry x="45" y="100" width="10" height="640" as="geometry" />
        </mxCell>
        <mxCell id="6wgtEtR7sXNdbjSEoORC-81" value="" style="shape=note;whiteSpace=wrap;html=1;size=14;verticalAlign=top;align=left;spacingTop=-6;rounded=0;shadow=0;comic=0;labelBackgroundColor=none;strokeWidth=1;fontFamily=Verdana;fontSize=12" parent="1" vertex="1">
          <mxGeometry x="-200" y="1060" width="190" height="55" as="geometry" />
        </mxCell>
        <mxCell id="6wgtEtR7sXNdbjSEoORC-82" value="vendor\tms\secure_element&lt;br&gt;\7816-3-T1\ph-driver&lt;br&gt;\phDriver.c" style="shape=note;whiteSpace=wrap;html=1;size=14;verticalAlign=top;align=left;spacingTop=-6;rounded=0;shadow=0;comic=0;labelBackgroundColor=none;strokeWidth=1;fontFamily=Verdana;fontSize=12" parent="1" vertex="1">
          <mxGeometry x="-286" y="-600" width="190" height="55" as="geometry" />
        </mxCell>
        <mxCell id="6wgtEtR7sXNdbjSEoORC-85" value="phOpen" style="html=1;verticalAlign=bottom;endArrow=block;rounded=0;exitX=0.892;exitY=0.157;exitDx=0;exitDy=0;exitPerimeter=0;" parent="1" edge="1">
          <mxGeometry width="80" relative="1" as="geometry">
            <mxPoint x="-376.0799999999999" y="199.99999999999997" as="sourcePoint" />
            <mxPoint x="-191" y="199.99999999999997" as="targetPoint" />
          </mxGeometry>
        </mxCell>
        <mxCell id="6wgtEtR7sXNdbjSEoORC-87" value="ioctlNfc" style="html=1;verticalAlign=bottom;endArrow=block;rounded=0;" parent="1" edge="1">
          <mxGeometry width="80" relative="1" as="geometry">
            <mxPoint x="-1000.5" y="320" as="sourcePoint" />
            <mxPoint x="-581" y="320" as="targetPoint" />
          </mxGeometry>
        </mxCell>
        <mxCell id="6wgtEtR7sXNdbjSEoORC-10" value="&lt;span style=&quot;background-color: rgb(255, 255, 153);&quot;&gt;Log&lt;br&gt;&lt;/span&gt;&lt;div style=&quot;text-align: left;&quot;&gt;&lt;span style=&quot;background-color: rgb(255, 255, 153);&quot;&gt;TmsCosDl:ReeDlCommonUtils: _ioctl: VEN arg 14&lt;/span&gt;&lt;/div&gt;&lt;div style=&quot;text-align: left;&quot;&gt;&lt;span style=&quot;background-color: rgb(255, 255, 153);&quot;&gt;TmsCosDl:ReeDlCommonUtils: _ioctl: success&lt;/span&gt;&lt;/div&gt;" style="text;html=1;resizable=0;autosize=1;align=center;verticalAlign=middle;points=[];fillColor=none;strokeColor=none;rounded=0;" parent="1" vertex="1">
          <mxGeometry x="-420" y="260" width="290" height="60" as="geometry" />
        </mxCell>
        <mxCell id="6wgtEtR7sXNdbjSEoORC-90" value="&lt;font color=&quot;#ff0000&quot;&gt;3.1 download flush I2C data&lt;/font&gt;" style="text;html=1;resizable=0;autosize=1;align=center;verticalAlign=middle;points=[];fillColor=none;strokeColor=none;rounded=0;" parent="1" vertex="1">
          <mxGeometry x="-990" y="235" width="170" height="30" as="geometry" />
        </mxCell>
        <mxCell id="6wgtEtR7sXNdbjSEoORC-75" value="seOpen" style="html=1;verticalAlign=bottom;endArrow=block;rounded=0;" parent="1" edge="1">
          <mxGeometry width="80" relative="1" as="geometry">
            <mxPoint x="-573" y="180" as="sourcePoint" />
            <mxPoint x="-385" y="180" as="targetPoint" />
          </mxGeometry>
        </mxCell>
        <mxCell id="6wgtEtR7sXNdbjSEoORC-91" value="&lt;font color=&quot;#ff0000&quot;&gt;3.2 get fw and fwBL version from chip (fwVer, fwBlVer)&lt;/font&gt;" style="text;html=1;resizable=0;autosize=1;align=center;verticalAlign=middle;points=[];fillColor=none;strokeColor=none;rounded=0;" parent="1" vertex="1">
          <mxGeometry x="-581" y="380" width="310" height="30" as="geometry" />
        </mxCell>
        <mxCell id="6wgtEtR7sXNdbjSEoORC-96" value="&lt;span style=&quot;text-align: left;&quot;&gt;printHexPacket&lt;/span&gt;" style="html=1;verticalAlign=bottom;endArrow=block;rounded=0;" parent="1" source="6wgtEtR7sXNdbjSEoORC-94" target="6wgtEtR7sXNdbjSEoORC-18" edge="1">
          <mxGeometry width="80" relative="1" as="geometry">
            <mxPoint x="105" y="263.94000000000005" as="sourcePoint" />
            <mxPoint x="260" y="264" as="targetPoint" />
          </mxGeometry>
        </mxCell>
        <mxCell id="6wgtEtR7sXNdbjSEoORC-97" value="vendor\tms\secure_element&lt;br&gt;\tms-utils\tmslog.c" style="shape=note;whiteSpace=wrap;html=1;size=14;verticalAlign=top;align=left;spacingTop=-6;rounded=0;shadow=0;comic=0;labelBackgroundColor=none;strokeWidth=1;fontFamily=Verdana;fontSize=12" parent="1" vertex="1">
          <mxGeometry x="102" y="-600" width="190" height="55" as="geometry" />
        </mxCell>
        <mxCell id="6wgtEtR7sXNdbjSEoORC-86" value="&lt;span style=&quot;background-color: rgb(255, 255, 153);&quot;&gt;Log&lt;br&gt;&lt;/span&gt;&lt;div style=&quot;text-align: left;&quot;&gt;&lt;span style=&quot;background-color: rgb(255, 255, 153);&quot;&gt;phDriver:&amp;nbsp; spiDeviceId: 7&lt;/span&gt;&lt;/div&gt;&lt;div style=&quot;text-align: left;&quot;&gt;&lt;span style=&quot;background-color: rgb(255, 255, 153);&quot;&gt;phDriver:&amp;nbsp; PH_WRITE_TIMEOUT: 10&lt;/span&gt;&lt;/div&gt;" style="text;html=1;resizable=0;autosize=1;align=center;verticalAlign=middle;points=[];fillColor=none;strokeColor=none;rounded=0;" parent="1" vertex="1">
          <mxGeometry x="-236" y="180" width="220" height="60" as="geometry" />
        </mxCell>
        <mxCell id="6wgtEtR7sXNdbjSEoORC-101" value="&lt;font color=&quot;#ff0000&quot;&gt;9. VTP download&lt;/font&gt;" style="text;html=1;resizable=0;autosize=1;align=center;verticalAlign=middle;points=[];fillColor=none;strokeColor=none;rounded=0;" parent="1" vertex="1">
          <mxGeometry x="-890" y="797" width="110" height="30" as="geometry" />
        </mxCell>
        <mxCell id="6wgtEtR7sXNdbjSEoORC-102" value="vtpDownload" style="html=1;verticalAlign=bottom;endArrow=block;rounded=0;entryX=1.109;entryY=0.365;entryDx=0;entryDy=0;entryPerimeter=0;exitX=-0.357;exitY=0.673;exitDx=0;exitDy=0;exitPerimeter=0;" parent="1" edge="1">
          <mxGeometry width="80" relative="1" as="geometry">
            <mxPoint x="-586.5700000000002" y="839.72" as="sourcePoint" />
            <mxPoint x="-770.9100000000003" y="839.6999999999998" as="targetPoint" />
          </mxGeometry>
        </mxCell>
        <mxCell id="Ku6d6TWkNU5Iu4rAbxKe-6" value="&lt;span style=&quot;text-align: left;&quot;&gt;getFwAndBlVerThread&lt;/span&gt;" style="html=1;verticalAlign=bottom;endArrow=block;rounded=0;" parent="1" edge="1">
          <mxGeometry width="80" relative="1" as="geometry">
            <mxPoint x="-1008.5" y="416.97" as="sourcePoint" />
            <mxPoint x="-10" y="416.97" as="targetPoint" />
          </mxGeometry>
        </mxCell>
        <mxCell id="6wgtEtR7sXNdbjSEoORC-100" value="vtpDownloadThread" style="html=1;verticalAlign=bottom;endArrow=block;rounded=0;" parent="1" edge="1">
          <mxGeometry width="80" relative="1" as="geometry">
            <mxPoint x="-1002" y="800" as="sourcePoint" />
            <mxPoint x="-578.5" y="800" as="targetPoint" />
          </mxGeometry>
        </mxCell>
        <mxCell id="-rd93zXeOg7RclRvKw8m-1" value="getBlVerThread" style="html=1;verticalAlign=bottom;endArrow=block;rounded=0;fontColor=#000000;" edge="1" parent="1" target="7baba1c4bc27f4b0-9">
          <mxGeometry width="80" relative="1" as="geometry">
            <mxPoint x="-1003" y="439.52000000000044" as="sourcePoint" />
            <mxPoint x="-4.547473508864641e-13" y="439.52000000000044" as="targetPoint" />
          </mxGeometry>
        </mxCell>
        <mxCell id="-rd93zXeOg7RclRvKw8m-2" value="&lt;font color=&quot;#ff0000&quot;&gt;8. T=1 init&lt;/font&gt;" style="text;html=1;resizable=0;autosize=1;align=center;verticalAlign=middle;points=[];fillColor=none;strokeColor=none;rounded=0;" vertex="1" parent="1">
          <mxGeometry x="-542" y="436" width="80" height="30" as="geometry" />
        </mxCell>
        <mxCell id="-rd93zXeOg7RclRvKw8m-7" value="&lt;span style=&quot;background-color: rgb(255, 255, 153);&quot;&gt;Log&lt;br&gt;&lt;/span&gt;&lt;div style=&quot;text-align: left;&quot;&gt;&lt;span style=&quot;background-color: rgb(255, 255, 153);&quot;&gt;TmsCosDl:NciUtils: BL version = 0xb402&lt;/span&gt;&lt;br&gt;&lt;/div&gt;" style="text;html=1;resizable=0;autosize=1;align=center;verticalAlign=middle;points=[];fillColor=none;strokeColor=none;rounded=0;" vertex="1" parent="1">
          <mxGeometry x="20" y="480" width="240" height="40" as="geometry" />
        </mxCell>
        <mxCell id="-rd93zXeOg7RclRvKw8m-8" value="&lt;font color=&quot;#ff0000&quot;&gt;没找到是哪里调过来的&lt;/font&gt;" style="text;html=1;resizable=0;autosize=1;align=center;verticalAlign=middle;points=[];fillColor=none;strokeColor=none;rounded=0;" vertex="1" parent="1">
          <mxGeometry x="-400" y="560" width="140" height="30" as="geometry" />
        </mxCell>
        <mxCell id="-rd93zXeOg7RclRvKw8m-9" value="vendor\tms\halimpl&lt;br&gt;\st21nfc\adaptation&lt;br&gt;\tmsnfc.cpp" style="shape=note;whiteSpace=wrap;html=1;size=14;verticalAlign=top;align=left;spacingTop=-6;rounded=0;shadow=0;comic=0;labelBackgroundColor=none;strokeWidth=1;fontFamily=Verdana;fontSize=12" vertex="1" parent="1">
          <mxGeometry x="640" y="390" width="190" height="55" as="geometry" />
        </mxCell>
        <mxCell id="-rd93zXeOg7RclRvKw8m-10" value="&#xa;&lt;span style=&quot;color: rgb(0, 0, 0); font-family: Verdana; font-size: 12px; font-style: normal; font-variant-ligatures: normal; font-variant-caps: normal; font-weight: 400; letter-spacing: normal; orphans: 2; text-align: left; text-indent: 0px; text-transform: none; widows: 2; word-spacing: 0px; -webkit-text-stroke-width: 0px; background-color: rgb(248, 249, 250); text-decoration-style: initial; text-decoration-color: initial; float: none; display: inline !important;&quot;&gt;tmsnfc.cpp&lt;/span&gt;&#xa;&#xa;" style="shape=umlLifeline;perimeter=lifelinePerimeter;whiteSpace=wrap;html=1;container=1;collapsible=0;recursiveResize=0;outlineConnect=0;rounded=1;shadow=0;comic=0;labelBackgroundColor=none;strokeWidth=1;fontFamily=Verdana;fontSize=12;align=center;" vertex="1" parent="1">
          <mxGeometry x="690" y="470" width="100" height="290" as="geometry" />
        </mxCell>
        <mxCell id="-rd93zXeOg7RclRvKw8m-11" value="" style="html=1;points=[];perimeter=orthogonalPerimeter;rounded=0;shadow=0;comic=0;labelBackgroundColor=none;strokeWidth=1;fontFamily=Verdana;fontSize=12;align=center;" vertex="1" parent="-rd93zXeOg7RclRvKw8m-10">
          <mxGeometry x="45" y="100" width="10" height="160" as="geometry" />
        </mxCell>
        <mxCell id="-rd93zXeOg7RclRvKw8m-14" value="nfccBlDownload" style="html=1;verticalAlign=bottom;endArrow=block;rounded=0;fontColor=#000000;" edge="1" parent="1" target="Ku6d6TWkNU5Iu4rAbxKe-2">
          <mxGeometry width="80" relative="1" as="geometry">
            <mxPoint x="735" y="717" as="sourcePoint" />
            <mxPoint x="-1008.3333333333335" y="717" as="targetPoint" />
          </mxGeometry>
        </mxCell>
        <mxCell id="-rd93zXeOg7RclRvKw8m-15" value="&lt;span style=&quot;background-color: rgb(255, 255, 153);&quot;&gt;Log&lt;br&gt;&lt;/span&gt;&lt;div style=&quot;text-align: left;&quot;&gt;&lt;span style=&quot;background-color: rgb(255, 255, 153);&quot;&gt;TmsCosDl:NfccDl: nfccBlDownload: enter&lt;/span&gt;&lt;br&gt;&lt;/div&gt;" style="text;html=1;resizable=0;autosize=1;align=center;verticalAlign=middle;points=[];fillColor=none;strokeColor=none;rounded=0;" vertex="1" parent="1">
          <mxGeometry x="-1285" y="-75" width="240" height="40" as="geometry" />
        </mxCell>
        <mxCell id="-rd93zXeOg7RclRvKw8m-16" value="&lt;span style=&quot;background-color: rgb(255, 255, 153);&quot;&gt;Log&lt;br&gt;&lt;/span&gt;&lt;div style=&quot;text-align: left;&quot;&gt;&lt;span style=&quot;background-color: rgb(255, 255, 153);&quot;&gt;SEApi&amp;nbsp; &amp;nbsp;: seOpen: SE Hal version: 11.01.00&lt;br&gt;&lt;/span&gt;&lt;/div&gt;&lt;div style=&quot;text-align: left;&quot;&gt;&lt;span style=&quot;background-color: rgb(255, 255, 153);&quot;&gt;SEApi&amp;nbsp; &amp;nbsp;: seOpen: SE Hal build time: 220527.2306&lt;/span&gt;&lt;br&gt;&lt;/div&gt;" style="text;html=1;resizable=0;autosize=1;align=center;verticalAlign=middle;points=[];fillColor=none;strokeColor=none;rounded=0;" vertex="1" parent="1">
          <mxGeometry x="-462" y="110" width="290" height="60" as="geometry" />
        </mxCell>
        <mxCell id="Ku6d6TWkNU5Iu4rAbxKe-9" value="nfccBlDownload" style="html=1;verticalAlign=bottom;endArrow=block;rounded=0;" parent="1" edge="1">
          <mxGeometry width="80" relative="1" as="geometry">
            <mxPoint x="-1182" y="-440" as="sourcePoint" />
            <mxPoint x="-1012.4999999999995" y="-440" as="targetPoint" />
          </mxGeometry>
        </mxCell>
        <mxCell id="-rd93zXeOg7RclRvKw8m-22" value="&lt;span style=&quot;background-color: rgb(255, 255, 153);&quot;&gt;Log&lt;br&gt;&lt;/span&gt;&lt;div style=&quot;text-align: left;&quot;&gt;&lt;span style=&quot;background-color: rgb(255, 255, 153);&quot;&gt;TmsCosDl:DlCommonUtils: isEndWith: name[20]=t, endStr[3]=n&lt;/span&gt;&lt;br&gt;&lt;/div&gt;" style="text;html=1;resizable=0;autosize=1;align=center;verticalAlign=middle;points=[];fillColor=none;strokeColor=none;rounded=0;" vertex="1" parent="1">
          <mxGeometry x="-902" y="-340" width="360" height="40" as="geometry" />
        </mxCell>
        <mxCell id="-rd93zXeOg7RclRvKw8m-25" value="&lt;span style=&quot;background-color: rgb(255, 255, 153);&quot;&gt;TmsCosDl:DlCommonUtils: &lt;br&gt;cannot find valid file: fileName = THN31_NFCC_BL_VTP.txt.bin&lt;/span&gt;" style="text;html=1;resizable=0;autosize=1;align=center;verticalAlign=middle;points=[];fillColor=none;strokeColor=none;rounded=0;" vertex="1" parent="1">
          <mxGeometry x="-877" y="-250" width="360" height="40" as="geometry" />
        </mxCell>
        <mxCell id="-rd93zXeOg7RclRvKw8m-26" value="&lt;span style=&quot;background-color: rgb(255, 255, 153);&quot;&gt;TmsCosDl:DlCommonUtils: &lt;br&gt;fileName = /data/vendor/nfc/THN31_NFCC_BL_VTP.txt, keyName = TMS_NFC_BL_NAME&lt;/span&gt;" style="text;html=1;resizable=0;autosize=1;align=center;verticalAlign=middle;points=[];fillColor=none;strokeColor=none;rounded=0;" vertex="1" parent="1">
          <mxGeometry x="-920" y="-190" width="510" height="40" as="geometry" />
        </mxCell>
        <mxCell id="-rd93zXeOg7RclRvKw8m-37" value="&lt;span style=&quot;background-color: rgb(255, 255, 153);&quot;&gt;TmsCosDl:DlCommonUtils: &lt;br&gt;parseVersion: VTP cosVer = 000000b401&lt;/span&gt;" style="text;html=1;resizable=0;autosize=1;align=center;verticalAlign=middle;points=[];fillColor=none;strokeColor=none;rounded=0;" vertex="1" parent="1">
          <mxGeometry x="-860" y="45" width="240" height="40" as="geometry" />
        </mxCell>
        <mxCell id="-rd93zXeOg7RclRvKw8m-34" value="&lt;span style=&quot;background-color: rgb(255, 255, 153);&quot;&gt;Log&lt;/span&gt;&lt;span style=&quot;background-color: rgb(255, 255, 153);&quot;&gt;&lt;br&gt;&lt;/span&gt;" style="text;html=1;resizable=0;autosize=1;align=center;verticalAlign=middle;points=[];fillColor=none;strokeColor=none;rounded=0;" vertex="1" parent="1">
          <mxGeometry x="-767" y="-44" width="40" height="30" as="geometry" />
        </mxCell>
        <mxCell id="6wgtEtR7sXNdbjSEoORC-51" value="openT1" style="html=1;verticalAlign=bottom;endArrow=block;rounded=0;" parent="1" edge="1">
          <mxGeometry width="80" relative="1" as="geometry">
            <mxPoint x="-1000.5" y="159.99999999999977" as="sourcePoint" />
            <mxPoint x="-581" y="159.99999999999977" as="targetPoint" />
          </mxGeometry>
        </mxCell>
      </root>
    </mxGraphModel>
  </diagram>
</mxfile>
